<?xml version="1.0" encoding="UTF-8"?>
<svg xmlns="http://www.w3.org/2000/svg" width="1536" height="1024" viewBox="0 0 1536 1024">

  <defs>
    <marker id="arrow" markerWidth="8" markerHeight="8" refX="6" refY="4" orient="auto">
      <path d="M0,0 L8,4 L0,8 z" fill="#64748b"/>
    </marker>
  </defs>
<rect x="0" y="0" width="1536" height="1024" rx="0" fill="#ffffff"/><rect x="0" y="0" width="1536" height="6" rx="0" fill="#1e3a5f"/><text x="768" y="28" fill="#1e3a5f" font-size="26" font-weight="800" text-anchor="middle" font-family="Segoe UI,Arial,sans-serif">Caching and Invalidation  –  Visual Guide</text><text x="768" y="52" fill="#475569" font-size="12" font-weight="500" text-anchor="middle" font-family="Segoe UI,Arial,sans-serif">.NET  ·  D21  ·  Caching made reads faster but introduced a second truth, so the design began with an explicit staleness budget</text><rect x="16" y="78" width="495" height="460" rx="12" fill="#eef2ff" stroke="#4f46e5" stroke-width="2"/><rect x="16" y="78" width="7" height="460" rx="0" fill="#4f46e5"/><circle cx="44" cy="100" r="12" fill="#4f46e5"/><text x="44" y="104" fill="#fff" font-size="12" font-weight="800" text-anchor="middle" font-family="Segoe UI,Arial,sans-serif">1</text><text x="62" y="105" fill="#4f46e5" font-size="13" font-weight="800" text-anchor="start" font-family="Segoe UI,Arial,sans-serif">How the pieces connect</text><text x="32" y="120" fill="#475569" font-size="11" font-weight="500" text-anchor="start" font-family="Segoe UI,Arial,sans-serif"><tspan x="32" dy="0">Name each box, then the hand-off.</tspan></text><rect x="30" y="146" width="109" height="64" rx="8" fill="#dbeafe" stroke="#1e40af" stroke-width="1.5"/><text x="85" y="174" fill="#1e40af" font-size="11" font-weight="800" text-anchor="middle" font-family="Segoe UI,Arial,sans-serif"><tspan x="85" dy="0">Miss</tspan></text><line x1="139" y1="178" x2="149" y2="178" stroke="#1e40af" stroke-width="2.2" marker-end="url(#arrow)"/><rect x="149" y="146" width="109" height="64" rx="8" fill="#dcfce7" stroke="#166534" stroke-width="1.5"/><text x="204" y="174" fill="#166534" font-size="11" font-weight="800" text-anchor="middle" font-family="Segoe UI,Arial,sans-serif"><tspan x="204" dy="0">Load store</tspan></text><line x1="258" y1="178" x2="268" y2="178" stroke="#1e40af" stroke-width="2.2" marker-end="url(#arrow)"/><rect x="268" y="146" width="109" height="64" rx="8" fill="#ffedd5" stroke="#9a3412" stroke-width="1.5"/><text x="323" y="174" fill="#9a3412" font-size="11" font-weight="800" text-anchor="middle" font-family="Segoe UI,Arial,sans-serif"><tspan x="323" dy="0">Set cache</tspan></text><line x1="378" y1="178" x2="388" y2="178" stroke="#1e40af" stroke-width="2.2" marker-end="url(#arrow)"/><rect x="388" y="146" width="109" height="64" rx="8" fill="#fef9c3" stroke="#854d0e" stroke-width="1.5"/><text x="442" y="174" fill="#854d0e" font-size="11" font-weight="800" text-anchor="middle" font-family="Segoe UI,Arial,sans-serif"><tspan x="442" dy="0">Invalidate</tspan></text><text x="30" y="226" fill="#475569" font-size="11" font-weight="500" text-anchor="start" font-family="Segoe UI,Arial,sans-serif"><tspan x="30" dy="0">Name each box, then the hand-off. Explains what they cached, why,</tspan><tspan x="30" dy="13">and how staleness was bounded</tspan></text><rect x="521" y="78" width="495" height="460" rx="12" fill="#f5f3ff" stroke="#7c3aed" stroke-width="2"/><rect x="521" y="78" width="7" height="460" rx="0" fill="#7c3aed"/><circle cx="549" cy="100" r="12" fill="#7c3aed"/><text x="549" y="104" fill="#fff" font-size="12" font-weight="800" text-anchor="middle" font-family="Segoe UI,Arial,sans-serif">2</text><text x="567" y="105" fill="#7c3aed" font-size="13" font-weight="800" text-anchor="start" font-family="Segoe UI,Arial,sans-serif">When A vs when B</text><text x="537" y="120" fill="#475569" font-size="11" font-weight="500" text-anchor="start" font-family="Segoe UI,Arial,sans-serif"><tspan x="537" dy="0">Pick a path with a project example.</tspan></text><polygon points="768,154 838,194 768,234 698,194" fill="#fef9c3" stroke="#b45309" stroke-width="1.8"/><text x="768" y="198" fill="#b45309" font-size="12" font-weight="800" text-anchor="middle" font-family="Segoe UI,Arial,sans-serif">Which?</text><rect x="535" y="246" width="224" height="272" rx="8" fill="#dbeafe" stroke="#1e40af" stroke-width="1.5"/><rect x="777" y="246" width="224" height="272" rx="8" fill="#dcfce7" stroke="#166534" stroke-width="1.5"/><text x="545" y="268" fill="#1e40af" font-size="12" font-weight="800" text-anchor="start" font-family="Segoe UI,Arial,sans-serif">Memory</text><text x="545" y="290" fill="#475569" font-size="11" font-weight="500" text-anchor="start" font-family="Segoe UI,Arial,sans-serif"><tspan x="545" dy="0">IMemoryCache is</tspan><tspan x="545" dy="13">process-local, fast, and not</tspan><tspan x="545" dy="13">shared across replicas.</tspan></text><text x="787" y="268" fill="#166534" font-size="12" font-weight="800" text-anchor="start" font-family="Segoe UI,Arial,sans-serif">Distributed</text><text x="787" y="290" fill="#475569" font-size="11" font-weight="500" text-anchor="start" font-family="Segoe UI,Arial,sans-serif"><tspan x="787" dy="0">A distributed cache shares</tspan><tspan x="787" dy="13">data across instances but</tspan><tspan x="787" dy="13">adds network and</tspan><tspan x="787" dy="13">serialization costs.</tspan></text><rect x="1025" y="78" width="495" height="460" rx="12" fill="#fff7ed" stroke="#ea580c" stroke-width="2"/><rect x="1025" y="78" width="7" height="460" rx="0" fill="#ea580c"/><circle cx="1053" cy="100" r="12" fill="#ea580c"/><text x="1053" y="104" fill="#fff" font-size="12" font-weight="800" text-anchor="middle" font-family="Segoe UI,Arial,sans-serif">3</text><text x="1071" y="105" fill="#ea580c" font-size="13" font-weight="800" text-anchor="start" font-family="Segoe UI,Arial,sans-serif">Compare — pick with a reason</text><text x="1041" y="120" fill="#475569" font-size="11" font-weight="500" text-anchor="start" font-family="Segoe UI,Arial,sans-serif"><tspan x="1041" dy="0">Say the criterion, then the choice.</tspan></text><rect x="1039" y="146" width="467" height="28" rx="6" fill="#1e3a5f"/><text x="1045" y="166" fill="#fff" font-size="10" font-weight="700" text-anchor="start" font-family="Segoe UI,Arial,sans-serif">Idea</text><text x="1279" y="166" fill="#fff" font-size="10" font-weight="700" text-anchor="start" font-family="Segoe UI,Arial,sans-serif">Remember</text><rect x="1039" y="174" width="467" height="28" rx="0" fill="#ffffff" stroke="#cbd5e1" stroke-width="0.8"/><text x="1045" y="194" fill="#0f172a" font-size="10" font-weight="500" text-anchor="start" font-family="Segoe UI,Arial,sans-serif">Memory</text><text x="1279" y="194" fill="#0f172a" font-size="10" font-weight="500" text-anchor="start" font-family="Segoe UI,Arial,sans-serif">IMemoryCache is proc</text><rect x="1039" y="202" width="467" height="28" rx="0" fill="#e2e8f0" stroke="#cbd5e1" stroke-width="0.8"/><text x="1045" y="222" fill="#0f172a" font-size="10" font-weight="500" text-anchor="start" font-family="Segoe UI,Arial,sans-serif">Distributed</text><text x="1279" y="222" fill="#0f172a" font-size="10" font-weight="500" text-anchor="start" font-family="Segoe UI,Arial,sans-serif">A distributed cache </text><rect x="1039" y="230" width="467" height="28" rx="0" fill="#ffffff" stroke="#cbd5e1" stroke-width="0.8"/><text x="1045" y="250" fill="#0f172a" font-size="10" font-weight="500" text-anchor="start" font-family="Segoe UI,Arial,sans-serif">Invalidation</text><text x="1279" y="250" fill="#0f172a" font-size="10" font-weight="500" text-anchor="start" font-family="Segoe UI,Arial,sans-serif">Bound staleness with</text><rect x="1039" y="258" width="467" height="28" rx="0" fill="#e2e8f0" stroke="#cbd5e1" stroke-width="0.8"/><text x="1045" y="278" fill="#0f172a" font-size="10" font-weight="500" text-anchor="start" font-family="Segoe UI,Arial,sans-serif">Stampede</text><text x="1279" y="278" fill="#0f172a" font-size="10" font-weight="500" text-anchor="start" font-family="Segoe UI,Arial,sans-serif">Coalesce refreshes o</text><rect x="16" y="548" width="495" height="460" rx="12" fill="#fef2f2" stroke="#dc2626" stroke-width="2"/><rect x="16" y="548" width="7" height="460" rx="0" fill="#dc2626"/><circle cx="44" cy="570" r="12" fill="#dc2626"/><text x="44" y="574" fill="#fff" font-size="12" font-weight="800" text-anchor="middle" font-family="Segoe UI,Arial,sans-serif">4</text><text x="62" y="575" fill="#dc2626" font-size="13" font-weight="800" text-anchor="start" font-family="Segoe UI,Arial,sans-serif">The scale you must name</text><text x="32" y="590" fill="#475569" font-size="11" font-weight="500" text-anchor="start" font-family="Segoe UI,Arial,sans-serif"><tspan x="32" dy="0">Set one level; everything below it goes quiet — or name the</tspan><tspan x="32" dy="13">lifetime.</tspan></text><rect x="30" y="616" width="467" height="89" rx="8" fill="#2563eb"/><text x="42" y="656" fill="#fff" font-size="12" font-weight="800" text-anchor="start" font-family="Segoe UI,Arial,sans-serif">Memory</text><text x="42" y="685" fill="#f8fafc" font-size="10" font-weight="500" text-anchor="start" font-family="Segoe UI,Arial,sans-serif">IMemoryCache is process-local, fast, and</text><rect x="30" y="713" width="429" height="89" rx="8" fill="#16a34a"/><text x="42" y="753" fill="#fff" font-size="12" font-weight="800" text-anchor="start" font-family="Segoe UI,Arial,sans-serif">Distributed</text><text x="42" y="782" fill="#f8fafc" font-size="10" font-weight="500" text-anchor="start" font-family="Segoe UI,Arial,sans-serif">A distributed cache shares data across i</text><rect x="30" y="810" width="392" height="89" rx="8" fill="#4f46e5"/><text x="42" y="850" fill="#fff" font-size="12" font-weight="800" text-anchor="start" font-family="Segoe UI,Arial,sans-serif">Invalidation</text><text x="42" y="879" fill="#f8fafc" font-size="10" font-weight="500" text-anchor="start" font-family="Segoe UI,Arial,sans-serif">Bound staleness with expiration, version</text><rect x="30" y="907" width="355" height="89" rx="8" fill="#7c3aed"/><text x="42" y="947" fill="#fff" font-size="12" font-weight="800" text-anchor="start" font-family="Segoe UI,Arial,sans-serif">Stampede</text><text x="42" y="976" fill="#f8fafc" font-size="10" font-weight="500" text-anchor="start" font-family="Segoe UI,Arial,sans-serif">Coalesce refreshes or add jitter so many</text><rect x="521" y="548" width="495" height="460" rx="12" fill="#eff6ff" stroke="#2563eb" stroke-width="2"/><rect x="521" y="548" width="7" height="460" rx="0" fill="#2563eb"/><circle cx="549" cy="570" r="12" fill="#2563eb"/><text x="549" y="574" fill="#fff" font-size="12" font-weight="800" text-anchor="middle" font-family="Segoe UI,Arial,sans-serif">5</text><text x="567" y="575" fill="#2563eb" font-size="13" font-weight="800" text-anchor="start" font-family="Segoe UI,Arial,sans-serif">Minimal setup / sample</text><text x="537" y="590" fill="#475569" font-size="11" font-weight="500" text-anchor="start" font-family="Segoe UI,Arial,sans-serif"><tspan x="537" dy="0">Configure once; point at a real line.</tspan></text><rect x="535" y="616" width="467" height="344" rx="8" fill="#f1f5f9" stroke="#94a3b8" stroke-width="1.5"/><text x="545" y="634" fill="#0f172a" font-size="11" font-weight="500" text-anchor="start" font-family="Consolas,Menlo,monospace"># walk the diagram — no sample on this slide</text><text x="539" y="984" fill="#166534" font-size="11" font-weight="700" text-anchor="start" font-family="Segoe UI,Arial,sans-serif">Explains what they cached, why, and how staleness was bounded</text><rect x="1025" y="548" width="495" height="460" rx="12" fill="#f0fdf4" stroke="#16a34a" stroke-width="2"/><rect x="1025" y="548" width="7" height="460" rx="0" fill="#16a34a"/><circle cx="1053" cy="570" r="12" fill="#16a34a"/><text x="1053" y="574" fill="#fff" font-size="12" font-weight="800" text-anchor="middle" font-family="Segoe UI,Arial,sans-serif">6</text><text x="1071" y="575" fill="#16a34a" font-size="13" font-weight="800" text-anchor="start" font-family="Segoe UI,Arial,sans-serif">The trap vs the fix</text><text x="1041" y="590" fill="#475569" font-size="11" font-weight="500" text-anchor="start" font-family="Segoe UI,Arial,sans-serif"><tspan x="1041" dy="0">Preferred form vs the interview trap.</tspan></text><rect x="1039" y="616" width="228" height="380" rx="8" fill="#fef2f2" stroke="#ef4444" stroke-width="1.5"/><text x="1047" y="634" fill="#b91c1c" font-size="12" font-weight="800" text-anchor="start" font-family="Segoe UI,Arial,sans-serif">✗  Cache forever</text><text x="1047" y="656" fill="#7f1d1d" font-size="11" font-weight="500" text-anchor="start" font-family="Segoe UI,Arial,sans-serif"><tspan x="1047" dy="0">Set entries with no expiry or</tspan><tspan x="1047" dy="13">invalidation.</tspan></text><rect x="1278" y="616" width="228" height="380" rx="8" fill="#f0fdf4" stroke="#16a34a" stroke-width="1.5"/><text x="1286" y="634" fill="#166534" font-size="12" font-weight="800" text-anchor="start" font-family="Segoe UI,Arial,sans-serif">✓  Do this</text><text x="1286" y="656" fill="#14532d" font-size="11" font-weight="500" text-anchor="start" font-family="Segoe UI,Arial,sans-serif"><tspan x="1286" dy="0">Define ownership, TTL,</tspan><tspan x="1286" dy="13">invalidation, capacity, and</tspan><tspan x="1286" dy="13">stale-data behavior.</tspan></text>
</svg>
